<svg width="78" height="78" viewBox="0 0 78 78" fill="none" xmlns="http://www.w3.org/2000/svg">
<circle cx="39" cy="39" r="39" fill="#2F69FF"/>
<path d="M22.18 28.78L25.405 37H26.995L30.22 28.78H28.765L26.215 35.74L23.65 28.78H22.18ZM31.5632 37H32.9282V28.78H31.5632V37ZM32.2682 27.445C32.7632 27.445 33.1682 27.04 33.1682 26.515C33.1682 25.99 32.7632 25.585 32.2682 25.585C31.7432 25.585 31.3382 25.99 31.3382 26.515C31.3382 27.04 31.7432 27.445 32.2682 27.445ZM38.7496 29.8C40.1596 29.8 41.3596 30.685 41.3446 32.29H36.1546C36.3046 30.685 37.4146 29.8 38.7496 29.8ZM42.5896 34.465H41.1196C40.8196 35.35 40.0396 35.98 38.8096 35.98C37.4146 35.98 36.2446 35.065 36.1396 33.4H42.7096C42.7396 33.115 42.7546 32.875 42.7546 32.575C42.7546 30.325 41.1946 28.645 38.8096 28.645C36.4096 28.645 34.7446 30.28 34.7446 32.875C34.7446 35.485 36.4696 37.135 38.8096 37.135C40.8496 37.135 42.1696 35.965 42.5896 34.465ZM46.1614 37H47.5714L49.5514 30.475L51.5314 37H52.9414L55.5064 28.78H54.1564L52.2964 35.695L50.3014 28.78H48.9064L46.8664 35.68L44.9764 28.78H43.5814L46.1614 37Z" fill="white"/>
<path d="M20.645 49.875C20.645 52.485 22.31 54.135 24.65 54.135C26.69 54.135 28.025 52.995 28.445 51.36H26.975C26.675 52.395 25.865 52.98 24.65 52.98C23.15 52.98 22.04 51.915 22.04 49.875C22.04 47.865 23.15 46.8 24.65 46.8C25.865 46.8 26.69 47.43 26.975 48.42H28.445C28.025 46.695 26.69 45.645 24.65 45.645C22.31 45.645 20.645 47.295 20.645 49.875ZM29.7563 49.86C29.7563 52.41 31.4513 54.135 33.6413 54.135C35.1563 54.135 36.2213 53.355 36.7163 52.47V54H38.0963V45.78H36.7163V47.28C36.2363 46.425 35.1863 45.645 33.6563 45.645C31.4513 45.645 29.7563 47.295 29.7563 49.86ZM36.7163 49.875C36.7163 51.81 35.4263 52.935 33.9263 52.935C32.4263 52.935 31.1513 51.795 31.1513 49.86C31.1513 47.925 32.4263 46.83 33.9263 46.83C35.4263 46.83 36.7163 47.97 36.7163 49.875ZM46.313 51.765C46.253 48.825 41.483 49.89 41.483 47.94C41.483 47.28 42.083 46.8 43.088 46.8C44.183 46.8 44.813 47.4 44.873 48.225H46.238C46.148 46.62 44.948 45.645 43.133 45.645C41.303 45.645 40.118 46.68 40.118 47.94C40.118 51 44.978 49.935 44.978 51.765C44.978 52.44 44.378 52.98 43.298 52.98C42.143 52.98 41.438 52.38 41.363 51.585H39.953C40.043 53.085 41.393 54.135 43.313 54.135C45.128 54.135 46.313 53.115 46.313 51.765ZM51.735 46.8C53.145 46.8 54.345 47.685 54.33 49.29H49.14C49.29 47.685 50.4 46.8 51.735 46.8ZM55.575 51.465H54.105C53.805 52.35 53.025 52.98 51.795 52.98C50.4 52.98 49.23 52.065 49.125 50.4H55.695C55.725 50.115 55.74 49.875 55.74 49.575C55.74 47.325 54.18 45.645 51.795 45.645C49.395 45.645 47.73 47.28 47.73 49.875C47.73 52.485 49.455 54.135 51.795 54.135C53.835 54.135 55.155 52.965 55.575 51.465Z" fill="white"/>
</svg>
