<svg id="Layer_1" data-name="Layer 1" xmlns="http://www.w3.org/2000/svg" viewBox="0 0 299.08 71.21"><defs><style>.cls-1{fill:#3f4244;}.cls-2{fill:#0078e9;fill-rule:evenodd;}.cls-3{fill:#333;}</style></defs><title>buff-logo</title><path class="cls-1" d="M1891.92,98.81a7.18,7.18,0,0,1,3.43.9,6.43,6.43,0,0,1,2.6,2.57,7,7,0,0,1,0,7,6.57,6.57,0,0,1-2.57,2.58,7,7,0,0,1-6.93,0,6.53,6.53,0,0,1-2.58-2.58,6.94,6.94,0,0,1,0-7,6.4,6.4,0,0,1,2.61-2.57A7.11,7.11,0,0,1,1891.92,98.81Zm0,1.15a6,6,0,0,0-2.86.75,5.41,5.41,0,0,0-2.17,2.15,6,6,0,0,0-.78,2.92,5.76,5.76,0,0,0,.77,2.88,5.42,5.42,0,0,0,2.15,2.15,5.81,5.81,0,0,0,5.78,0,5.42,5.42,0,0,0,2.15-2.15,5.87,5.87,0,0,0,.77-2.88,6,6,0,0,0-.78-2.92,5.37,5.37,0,0,0-2.18-2.15A6,6,0,0,0,1891.92,100Zm-3.05,9.66v-7.49h2.57a6.21,6.21,0,0,1,1.91.21,1.83,1.83,0,0,1,.94.72,1.89,1.89,0,0,1,.35,1.1,2,2,0,0,1-.58,1.43,2.26,2.26,0,0,1-1.56.68,2.27,2.27,0,0,1,.64.4,8.87,8.87,0,0,1,1.11,1.49l.91,1.46h-1.48l-.66-1.18a5.86,5.86,0,0,0-1.27-1.74,1.55,1.55,0,0,0-1-.26h-.71v3.18Zm1.21-4.21h1.46a2.38,2.38,0,0,0,1.44-.32,1,1,0,0,0,.38-.83,1,1,0,0,0-.18-.59,1.16,1.16,0,0,0-.52-.4,4,4,0,0,0-1.21-.12h-1.37Z" transform="translate(-1600.58 -98.81)"/><path class="cls-2" d="M1633.49,126.39a54.92,54.92,0,0,0-10-26.75h-22.88v16.55a61,61,0,0,1,32.91,10.2" transform="translate(-1600.58 -98.81)"/><path class="cls-2" d="M1630.74,99.64a61.07,61.07,0,0,1,9.07,31.57,60.18,60.18,0,0,1,5.23,5.12A61.65,61.65,0,0,1,1671,111.56V99.64Z" transform="translate(-1600.58 -98.81)"/><path class="cls-2" d="M1626.43,170h10.87c-.07-1.21-.11-2.42-.11-3.65a61.11,61.11,0,0,1,4.94-24.15c-.88-1.06-1.8-2.08-2.76-3.07a52.94,52.94,0,0,0-5.67-5.12,55,55,0,0,0-33.12-11.77V170h25.85Z" transform="translate(-1600.58 -98.81)"/><path class="cls-2" d="M1646.37,148.05a55.06,55.06,0,0,0-3.11,18.32c0,1.23,0,2.44.12,3.65H1671V118.45a55.51,55.51,0,0,0-21.75,23,53.12,53.12,0,0,0-2.83,6.62" transform="translate(-1600.58 -98.81)"/><path class="cls-3" d="M1681.51,149.24c-.58,0-.82-.25-.82-.82v-27.7c0-.57.24-.82.82-.82h6c6.36,0,10.31,2.73,10.31,7.74a6.36,6.36,0,0,1-3.87,6.12v.08a6.68,6.68,0,0,1,6,7c0,4.72-4,8.35-9.33,8.35Zm6.76-16.67c2.4,0,4.44-1.79,4.44-4.84,0-2.65-1.59-4.4-5.22-4.4h-1.67v9.24Zm1.06,13.24c4.44,0,5.54-2.44,5.54-4.88s-1.31-4.93-5.54-4.93h-3.51v9.81Z" transform="translate(-1600.58 -98.81)"/><path class="cls-3" d="M1718.58,149.24c-.57,0-.69-.25-.81-.82l-.41-1.67h-.08a6.18,6.18,0,0,1-5.42,3c-4.52,0-8.19-2.9-8.19-8V128.87c0-.57.25-.82.78-.82h3.34c.53,0,.77.25.77.82v11.48c0,3.14.9,6,3.71,6s4.28-2.16,4.28-6.35V128.87c0-.57.24-.82.81-.82h3.26c.57,0,.82.25.82.82v19.55c0,.57-.25.82-.82.82Z" transform="translate(-1600.58 -98.81)"/><path class="cls-3" d="M1731.7,148.42c0,.57-.24.82-.81.82h-3.26c-.57,0-.81-.25-.81-.82V131.27h-2.12c-.57,0-.82-.24-.82-.81v-1.59c0-.57.25-.82.82-.82h2.12v-2.61c0-4.27,2-6.35,5.62-6.35H1734c.57,0,.81.24.81.81v1.8c0,.57-.24.81-.81.81h-.29c-.94,0-2,.82-2,2.81v2.73h2.57c.57,0,.82.25.82.82v1.59c0,.57-.25.81-.82.81h-2.57Z" transform="translate(-1600.58 -98.81)"/><path class="cls-3" d="M1745,148.42c0,.57-.25.82-.82.82h-3.26c-.57,0-.81-.25-.81-.82V131.27h-2.12c-.57,0-.82-.24-.82-.81v-1.59c0-.57.25-.82.82-.82h2.12v-2.61c0-4.27,2-6.35,5.62-6.35h1.51c.57,0,.81.24.81.81v1.8c0,.57-.24.81-.81.81h-.29c-.93,0-2,.82-2,2.81v2.73h2.56c.57,0,.82.25.82.82v1.59c0,.57-.25.81-.82.81H1745Z" transform="translate(-1600.58 -98.81)"/><path class="cls-3" d="M1763.81,149.24c-.57,0-.81-.25-.81-.82v-27.7c0-.57.24-.82.81-.82h3.51c.57,0,.81.25.81.82v27.7c0,.57-.24.82-.81.82Z" transform="translate(-1600.58 -98.81)"/><path class="cls-3" d="M1785.86,149.24c-.54,0-.78-.25-.78-.82V136.93c0-3.13-.9-6-3.71-6s-4.27,2.16-4.27,6.36v11.08c0,.57-.25.82-.82.82H1773c-.57,0-.81-.25-.81-.82V128.87c0-.57.24-.82.81-.82h2c.57,0,.69.25.81.82l.41,1.67h.08a6.18,6.18,0,0,1,5.42-3c4.52,0,8.19,2.9,8.19,8v12.87c0,.57-.24.82-.77.82Z" transform="translate(-1600.58 -98.81)"/><path class="cls-3" d="M1798.36,140a5.75,5.75,0,0,1-4.31-5.91c0-3.75,2.64-6.56,7.61-6.56,3.47,0,6.2,1.1,7.09,2,.17.16.41.45,0,1.06l-.85,1.3c-.17.37-.69.2-1.06.08a13.62,13.62,0,0,0-4.73-1c-2.4,0-3.42,1.06-3.42,2.65a1.94,1.94,0,0,0,1.59,2l4.77,1.38c3.54,1,4.64,3,4.64,6.16,0,4.4-4,6.6-8.47,6.6-3.43,0-6.56-.94-7.34-2a.82.82,0,0,1,0-1.06l.86-1.3c.2-.29.69-.21,1.06-.09a15.82,15.82,0,0,0,5.21,1c3.38,0,4.08-1.42,4.08-2.73s-.82-1.79-3.18-2.52Z" transform="translate(-1600.58 -98.81)"/><path class="cls-3" d="M1820.53,149.24c-3.67,0-5.62-2.08-5.62-6.36V131.27h-2.12c-.57,0-.81-.24-.81-.81v-1.59c0-.57.24-.82.81-.82h2.12v-3.14c0-.57.28-.61.81-.81l3.26-1.22c.53-.21.82.24.82.81v4.36h2.56c.58,0,.82.25.82.82v1.59c0,.57-.24.81-.82.81h-2.56V143c0,2,1,2.81,2,2.81h.29c.57,0,.81.25.81.82v1.79c0,.57-.24.82-.81.82Z" transform="translate(-1600.58 -98.81)"/><path class="cls-3" d="M1827.25,124c-.57,0-.81-.25-.81-.82V119.9c0-.57.24-.81.81-.81h3.26c.57,0,.82.24.82.81v3.26c0,.57-.25.82-.82.82Zm0,25.26c-.57,0-.81-.25-.81-.82V128.87c0-.57.24-.82.81-.82h3.26c.57,0,.82.25.82.82v19.55c0,.57-.25.82-.82.82Z" transform="translate(-1600.58 -98.81)"/><path class="cls-3" d="M1842.33,149.24c-3.67,0-5.62-2.08-5.62-6.36V131.27h-2.12c-.57,0-.82-.24-.82-.81v-1.59c0-.57.25-.82.82-.82h2.12v-3.14c0-.57.28-.61.81-.81l3.26-1.22c.53-.21.82.24.82.81v4.36h2.56c.57,0,.82.25.82.82v1.59c0,.57-.25.81-.82.81h-2.56V143c0,2,1,2.81,2,2.81h.29c.57,0,.81.25.81.82v1.79c0,.57-.24.82-.81.82Z" transform="translate(-1600.58 -98.81)"/><path class="cls-3" d="M1863.15,149.24c-.57,0-.69-.25-.82-.82l-.4-1.67h-.08a6.19,6.19,0,0,1-5.42,3c-4.53,0-8.19-2.9-8.19-8V128.87c0-.57.24-.82.77-.82h3.34c.53,0,.78.25.78.82v11.48c0,3.14.89,6,3.7,6s4.28-2.16,4.28-6.35V128.87c0-.57.25-.82.82-.82h3.26c.57,0,.81.25.81.82v19.55c0,.57-.24.82-.81.82Z" transform="translate(-1600.58 -98.81)"/><path class="cls-3" d="M1877,149.24c-3.66,0-5.62-2.08-5.62-6.36V131.27h-2.12c-.57,0-.81-.24-.81-.81v-1.59c0-.57.24-.82.81-.82h2.12v-3.14c0-.57.29-.61.82-.81l3.26-1.22c.52-.21.81.24.81.81v4.36h2.57c.57,0,.81.25.81.82v1.59c0,.57-.24.81-.81.81h-2.57V143c0,2,1,2.81,2,2.81h.28c.57,0,.82.25.82.82v1.79c0,.57-.25.82-.82.82Z" transform="translate(-1600.58 -98.81)"/><path class="cls-3" d="M1898.72,146.67a.77.77,0,0,1,0,1.06c-.78.9-3.75,2-7.21,2-7.54,0-9.58-5.18-9.58-10.88,0-6.28,2.45-11.33,9-11.33,4.93,0,8.72,2.85,8.72,8.76,0,3.14-1.06,4.07-4.44,4.07h-8.36c.33,3.43,1.55,6,5.14,6a16.2,16.2,0,0,0,4.81-1c.81-.24.93-.08,1,.09Zm-5.58-9.74c1.26,0,1.59-.16,1.59-1.38,0-2.41-1.43-4.61-3.59-4.61-3,0-4,2.77-4.28,6Z" transform="translate(-1600.58 -98.81)"/></svg>